<?xml version="1.0" encoding="UTF-8"?>
<svg id="Ebene_1" xmlns="http://www.w3.org/2000/svg" version="1.1" viewBox="0 0 974.9 237.4">
  <!-- Generator: Adobe Illustrator 30.6.0, SVG Export Plug-In . SVG Version: 2.1.4 Build 109)  -->
  <path d="M564,49.5c-9.8,10.4-12.4,25.4-8,38.7,1.6-25.9,19.3-44.5,42.4-51.2-13-1.2-25.5,3.2-34.3,12.5Z"/>
  <path d="M211.5,93.4c-10.4-4-20.8-6-32.1-6.1l-73.1-.3c-6.2,0-12.1-.7-17.7-2.6-6.4-2.1-9.4-7.2-9.1-13.8.3-6.4,1.7-13.4,7.2-17.4,5.7-4,12.5-4.5,19.6-5l118.7-.2L250.8.1H106.3c-28.9.5-57.8,10.2-71.3,36.4-8.6,16.9-11.3,36-8.3,54.7,5.1,31.5,35.8,39.6,65.5,39.7l72.9.4c6.2,0,12.7,1.2,17.2,5.2,4.3,3.8,4.2,9.9,3.7,15.1-1.5,16.3-15.8,19.4-32,19.4H22.5S0,219,0,219h159.6c31.5-1.7,60.1-10.9,73-40,13.3-29.9,12.7-72.7-21.1-85.6Z"/>
  <path d="M613.8,73.9c-.2-5.4-5.1-9.2-10.5-8.2-9.2,1.7-14.6,9.5-15,18.6l-69.9,66.5-69.1,66.8c-5.2,5-4.1,13.1,1.2,17.2,4.9,3.8,11.6,3.6,16.7-2l129.6-141.6c9.7-.4,17.3-7.6,17-17.3Z"/>
  <polygon points="481.2 0 275.1 0 249 48.2 340.9 48.2 313.6 219 366.6 218.9 394.4 48.3 473.1 48.1 481.2 0"/>
  <path d="M578.1,60.1c-4.7,5-7.1,12.9-3.5,20,1.5-13.1,10.5-22.9,22.9-26-7.5-2.1-14.7,1-19.4,6Z"/>
  <path d="M608.9,101.4c5.7.9,10.5-1.1,15.2-4.3,8.2-6.5,10.2-17.6,4.2-25.7,1.4,14.2-6.7,25.6-19.4,30Z"/>
  <polygon points="974.9 .1 910.9 .1 833.2 84.5 793.8 84.3 807.3 0 754.1 0 718.6 218.9 771.7 219.1 785.8 132.6 829.2 132.7 890 219 954.2 218.9 874.9 108 974.9 .1"/>
  <path d="M612,118.2c13.7-.4,26.3-8,32.6-19.2,7-12.5,7.1-27.3-1-39.7,4.9,24-7.6,49.4-31.6,58.8Z"/>
  <path d="M669.9,7c-12.8-4.7-25.6-6.9-39.7-6.9h-126.6c0-.1-28.4,171.9-28.4,171.9l71.3-67.7c-15.2-28.1-3.4-62.4,26.2-75.4,16.6-7.7,35.8-8.1,53.1-2,13.1,5.3,23.8,13.4,30.5,25.7,13.1,24.1,6.5,53.5-16.4,68.9-17.2,11.6-38.6,14.2-58.6,7.8l-32.6,35.8,51.4.5,32.1,53.4h61.2c0,0-39.7-63.1-39.7-63.1,18.5-7.6,33.7-19.7,42.9-36.9,11.3-21.1,14.7-45.5,10.3-68.7-4.4-20.6-17.3-36.2-36.9-43.3Z"/>
</svg>